<?xml version="1.0" standalone="no"?>
<!DOCTYPE svg PUBLIC "-//W3C//DTD SVG 1.1//EN" "http://www.w3.org/Graphics/SVG/1.1/DTD/svg11.dtd" >
<svg>
<defs>
<font id="Metal Blackletter" horiz-adv-x="250" >
<font-face units-per-em="100" ascent="80" descent="-20" />
<glyph unicode="!" horiz-adv-x="56" d="M13.600000000000000 19.899999999999999 C15.375000000000000 21.699999999999989 18.925000000000011 25.300000000000011 20.699999999999989 27.100000000000023 C20.699999999999989 41.600000000000023 20.699999999999989 70.599999999999994 20.699999999999989 85.099999999999994 C18.225000000000023 87.574999999999989 14.100000000000023 91.699999999999989 10.800000000000011 95.000000000000000 L0.000000000000000 84.199999999999989 L5.399999999999977 78.800000000000011 L5.399999999999977 27.100000000000023 L12.600000000000023 19.899999999999977 L2.899999999999977 10.199999999999989 L13.100000000000023 0.000000000000000 L23.300000000000011 10.199999999999989 L13.600000000000023 19.899999999999977 z" />
<glyph unicode="&#x22;" horiz-adv-x="56" d="M40.799999999999997 85.500000000000000 L30.600000000000023 60.000000000000000 L20.399999999999977 85.500000000000000 L30.600000000000023 95.699999999999989 L40.800000000000011 85.500000000000000 zM10.199999999999999 95.700000000000003 L20.399999999999977 85.500000000000000 L10.199999999999989 60.000000000000000 L0.000000000000000 85.500000000000000 L10.199999999999989 95.699999999999989 z" />
<glyph unicode="&#x26;" horiz-adv-x="56" d="" />
<glyph unicode="'" horiz-adv-x="56" d="M10.199999999999999 95.599999999999994 C7.649999999999977 93.050000000000011 2.550000000000011 87.949999999999989 0.000000000000000 85.400000000000006 C1.199999999999989 84.199999999999989 3.600000000000023 81.800000000000011 4.800000000000011 80.599999999999994 C3.600000000000023 76.699999999999989 1.600000000000023 70.199999999999989 0.000000000000000 65.000000000000000 L20.399999999999977 85.400000000000006 L10.199999999999989 95.599999999999994 z" />
<glyph unicode="(" horiz-adv-x="56" d="M23.800000000000001 0.000000000000000 C25.925000000000011 3.199999999999989 30.175000000000011 9.600000000000023 32.300000000000011 12.800000000000011 C28.050000000000011 15.625000000000000 19.550000000000011 21.274999999999977 15.300000000000011 24.100000000000023 C15.300000000000011 36.300000000000011 15.300000000000011 56.633333333333326 15.300000000000011 72.900000000000006 L32.300000000000011 84.300000000000011 L23.800000000000011 97.000000000000000 L0.000000000000000 81.099999999999994 L0.000000000000000 15.899999999999977 L23.800000000000011 0.000000000000000 z" />
<glyph unicode=")" horiz-adv-x="56" d="M8.500000000000000 -0.600000000000000 C6.375000000000000 2.600000000000023 2.125000000000000 9.000000000000000 0.000000000000000 12.199999999999989 C4.250000000000000 15.024999999999977 12.750000000000000 20.675000000000011 17.000000000000000 23.500000000000000 C17.000000000000000 35.699999999999989 17.000000000000000 56.033333333333303 17.000000000000000 72.300000000000011 L0.000000000000000 83.699999999999989 L8.500000000000000 96.400000000000006 L32.300000000000011 80.500000000000000 L32.300000000000011 15.300000000000011 L8.500000000000000 -0.600000000000023 z" />
<glyph unicode="," horiz-adv-x="56" d="M10.199999999999999 20.600000000000001 C7.649999999999977 18.050000000000011 2.550000000000011 12.949999999999989 0.000000000000000 10.399999999999977 C1.199999999999989 9.199999999999989 3.600000000000023 6.800000000000011 4.800000000000011 5.600000000000023 C3.600000000000023 1.699999999999989 1.600000000000023 -4.800000000000011 0.000000000000000 -10.000000000000000 L20.399999999999977 10.399999999999977 L10.199999999999989 20.600000000000023 z" />
<glyph unicode="-" horiz-adv-x="56" d="M45.899999999999999 30.000000000000000 C44.550000000000011 31.350000000000023 41.850000000000023 34.050000000000011 40.500000000000000 35.399999999999977 C32.850000000000023 35.399999999999977 17.550000000000011 35.399999999999977 9.899999999999977 35.399999999999977 C7.425000000000011 37.875000000000000 2.475000000000023 42.824999999999989 0.000000000000000 45.300000000000011 C2.699999999999989 48.000000000000000 8.100000000000023 53.399999999999977 10.800000000000011 56.100000000000023 C12.149999999999977 54.750000000000000 14.850000000000023 52.050000000000011 16.199999999999989 50.699999999999989 C23.875000000000000 50.699999999999989 36.666666666666686 50.699999999999989 46.899999999999977 50.699999999999989 L56.800000000000011 40.800000000000011 L45.899999999999977 30.000000000000000 z" />
<glyph unicode="." horiz-adv-x="56" d="M10.199999999999999 0.000000000000000 C8.925000000000011 1.274999999999977 6.375000000000000 3.824999999999989 5.100000000000023 5.100000000000023 C3.824999999999989 6.375000000000000 1.274999999999977 8.925000000000011 0.000000000000000 10.199999999999989 C1.274999999999977 11.475000000000023 3.399999999999977 13.600000000000023 5.100000000000023 15.300000000000011 L10.199999999999989 20.399999999999977 L15.300000000000011 15.300000000000011 L20.399999999999977 10.199999999999989 L15.300000000000011 5.100000000000023 L10.199999999999989 0.000000000000000 z" />
<glyph unicode="/" horiz-adv-x="56" d="M19.399999999999999 5.000000000000000 C14.550000000000011 5.000000000000000 4.850000000000023 5.000000000000000 0.000000000000000 5.000000000000000 C8.675000000000011 24.550000000000011 26.024999999999977 63.650000000000006 34.699999999999989 83.199999999999989 C34.699999999999989 84.699999999999989 34.699999999999989 87.199999999999989 34.699999999999989 89.199999999999989 L54.199999999999989 89.199999999999989 L19.399999999999977 11.000000000000000 L19.399999999999977 5.000000000000000 z" />
<glyph unicode="0" horiz-adv-x="56" d="M56.200000000000003 76.299999999999997 L56.199999999999989 18.699999999999989 L28.100000000000023 0.000000000000000 L0.000000000000000 18.800000000000011 L0.000000000000000 76.300000000000011 L28.100000000000023 95.000000000000000 L56.199999999999989 76.300000000000011 zM15.300000000000001 68.099999999999994 L15.300000000000011 44.100000000000023 L37.199999999999989 70.500000000000000 L28.100000000000023 76.599999999999994 L15.300000000000011 68.099999999999994 zM40.899999999999999 26.900000000000006 L40.899999999999977 50.899999999999977 L19.000000000000000 24.500000000000000 L28.100000000000023 18.399999999999977 L40.899999999999977 26.899999999999977 z" />
<glyph unicode="1" horiz-adv-x="56" d="M20.699999999999999 16.200000000000003 L20.699999999999989 85.099999999999994 L10.800000000000011 95.000000000000000 L0.000000000000000 84.199999999999989 L5.399999999999977 78.800000000000011 L5.399999999999977 9.899999999999977 L15.300000000000011 0.000000000000000 L26.100000000000023 10.800000000000011 L20.699999999999989 16.199999999999989 z" />
<glyph unicode="2" horiz-adv-x="56" d="M28.100000000000001 94.700000000000003 L0.000000000000000 76.000000000000000 L0.000000000000000 63.900000000000006 L15.300000000000011 54.000000000000000 L15.300000000000011 67.800000000000011 L28.100000000000023 76.300000000000011 L40.800000000000011 67.800000000000011 L40.800000000000011 58.899999999999977 L0.000000000000000 31.300000000000011 L0.000000000000000 0.000000000000000 L56.100000000000023 0.000000000000000 L56.100000000000023 15.300000000000011 L15.300000000000011 15.300000000000011 L15.300000000000011 23.199999999999989 L56.100000000000023 50.800000000000011 L56.100000000000023 76.000000000000000 L28.100000000000023 94.699999999999989 z" />
<glyph unicode="3" horiz-adv-x="56" d="M56.100000000000001 76.299999999999997 L28.100000000000023 95.000000000000000 L0.000000000000000 76.300000000000011 L0.000000000000000 64.199999999999989 L15.300000000000011 54.300000000000011 L15.300000000000011 68.099999999999994 L28.100000000000023 76.599999999999994 L40.800000000000011 68.099999999999994 L40.800000000000011 63.500000000000000 L21.000000000000000 47.500000000000000 L40.800000000000011 31.500000000000000 L40.800000000000011 26.899999999999977 L28.100000000000023 18.399999999999977 L15.300000000000011 26.899999999999977 L15.300000000000011 39.500000000000000 L0.000000000000000 29.600000000000023 L0.000000000000000 18.800000000000011 L28.100000000000023 0.000000000000000 L56.100000000000023 18.800000000000011 L56.100000000000023 38.800000000000011 L45.399999999999977 47.500000000000000 L56.100000000000023 56.199999999999989 L56.100000000000023 76.300000000000011 z" />
<glyph unicode="4" horiz-adv-x="56" d="M57.399999999999999 31.000000000000000 L48.500000000000000 31.000000000000000 L48.500000000000000 15.000000000000000 L53.899999999999977 9.600000000000023 L43.100000000000023 -1.199999999999989 L33.199999999999989 8.699999999999989 L33.199999999999989 31.000000000000000 L0.000000000000000 31.000000000000000 L0.000000000000000 53.800000000000011 L48.500000000000000 93.600000000000023 L48.500000000000000 46.399999999999977 L57.399999999999977 46.399999999999977 L57.399999999999977 31.100000000000023 L57.399999999999977 31.000000000000000 zM15.300000000000001 46.399999999999999 L33.199999999999989 46.399999999999977 L33.199999999999989 61.300000000000011 L15.300000000000011 46.600000000000023 L15.300000000000011 46.399999999999977 z" />
<glyph unicode="5" horiz-adv-x="56" d="M56.100000000000001 79.400000000000006 L56.100000000000023 94.699999999999989 L0.000000000000000 94.699999999999989 L0.000000000000000 67.199999999999989 L40.800000000000011 39.600000000000023 L40.800000000000011 26.899999999999977 L28.100000000000023 18.399999999999977 L15.300000000000011 26.899999999999977 L15.300000000000011 40.699999999999989 L0.000000000000000 30.800000000000011 L0.000000000000000 18.699999999999989 L28.100000000000023 0.000000000000000 L56.100000000000023 18.699999999999989 L56.100000000000023 47.699999999999989 L15.300000000000011 75.400000000000006 L15.300000000000011 79.400000000000006 L56.100000000000023 79.400000000000006 z" />
<glyph unicode="6" horiz-adv-x="56" d="M28.100000000000001 62.200000000000003 L56.199999999999989 43.500000000000000 L56.199999999999989 18.699999999999989 L28.100000000000023 0.000000000000000 L0.000000000000000 18.800000000000011 L0.000000000000000 76.300000000000011 L28.100000000000023 95.000000000000000 L57.500000000000000 75.500000000000000 L43.500000000000000 66.400000000000006 L28.100000000000023 76.599999999999994 L15.300000000000011 68.099999999999994 L15.300000000000011 53.699999999999989 L28.100000000000023 62.199999999999989 zM40.799999999999997 35.300000000000004 L28.000000000000000 43.800000000000011 L15.199999999999989 35.300000000000011 L15.199999999999989 26.899999999999977 L28.000000000000000 18.399999999999977 L40.800000000000011 26.899999999999977 L40.800000000000011 35.300000000000011 z" />
<glyph unicode="7" horiz-adv-x="56" d="M63.100000000000001 89.299999999999997 L16.199999999999989 89.300000000000011 L10.800000000000011 94.699999999999989 L0.000000000000000 83.900000000000006 L9.899999999999977 74.000000000000000 L39.600000000000023 74.000000000000000 L32.300000000000011 57.600000000000023 L25.000000000000000 62.500000000000000 L16.500000000000000 49.699999999999989 L26.000000000000000 43.399999999999977 L6.699999999999989 0.000000000000000 L23.399999999999977 0.000000000000000 L38.899999999999977 34.800000000000011 L47.100000000000023 29.300000000000011 L55.600000000000023 42.100000000000023 L45.199999999999989 49.000000000000000 L63.100000000000023 89.300000000000011 z" />
<glyph unicode="8" horiz-adv-x="56" d="M56.100000000000001 57.000000000000000 L41.899999999999977 47.500000000000000 L56.199999999999989 38.000000000000000 L56.199999999999989 18.699999999999989 L28.100000000000023 0.000000000000000 L0.000000000000000 18.699999999999989 L0.000000000000000 38.000000000000000 L14.300000000000011 47.500000000000000 L0.000000000000000 57.000000000000000 L0.000000000000000 76.300000000000011 L28.100000000000023 95.000000000000000 L56.100000000000023 76.300000000000011 L56.100000000000023 57.000000000000000 zM27.999999999999996 38.299999999999997 L15.199999999999989 29.800000000000011 L15.199999999999989 26.899999999999977 L28.000000000000000 18.399999999999977 L40.800000000000011 26.899999999999977 L40.800000000000011 29.800000000000011 L28.000000000000000 38.300000000000011 zM28.100000000000005 56.700000000000003 L40.899999999999977 65.199999999999989 L40.899999999999977 68.099999999999994 L28.100000000000023 76.599999999999994 L15.300000000000011 68.099999999999994 L15.300000000000011 65.199999999999989 L28.100000000000023 56.699999999999989 z" />
<glyph unicode="9" horiz-adv-x="56" d="M57.500000000000000 76.299999999999997 L57.500000000000000 18.699999999999989 L29.399999999999977 0.000000000000000 L0.000000000000000 19.600000000000023 L14.000000000000000 28.699999999999989 L29.399999999999977 18.500000000000000 L42.199999999999989 27.000000000000000 L42.199999999999989 41.300000000000011 L29.399999999999977 32.800000000000011 L1.300000000000011 51.500000000000000 L1.300000000000011 76.300000000000011 L29.399999999999977 95.000000000000000 L57.500000000000000 76.300000000000011 zM42.200000000000003 68.099999999999994 L29.399999999999977 76.599999999999994 L16.600000000000023 68.099999999999994 L16.600000000000023 59.699999999999989 L29.399999999999977 51.199999999999989 L42.199999999999989 59.699999999999989 L42.199999999999989 68.099999999999994 z" />
<glyph unicode=":" horiz-adv-x="56" d="M10.199999999999999 20.399999999999999 L20.399999999999977 10.199999999999989 L10.199999999999989 0.000000000000000 L0.000000000000000 10.199999999999989 L10.199999999999989 20.399999999999977 zM10.199999999999999 45.000000000000000 L0.000000000000000 55.199999999999989 L10.199999999999989 65.400000000000006 L20.399999999999977 55.199999999999989 L10.199999999999989 45.000000000000000 z" />
<glyph unicode=";" horiz-adv-x="56" d="M10.199999999999999 18.600000000000001 L20.399999999999977 8.399999999999977 L0.000000000000000 -12.000000000000000 L4.800000000000011 3.600000000000023 L0.000000000000000 8.399999999999977 L10.199999999999989 18.600000000000023 zM10.199999999999999 43.200000000000003 L0.000000000000000 53.399999999999977 L10.199999999999989 63.599999999999994 L20.399999999999977 53.399999999999977 L10.199999999999989 43.199999999999989 z" />
<glyph unicode="?" horiz-adv-x="56" d="M32.299999999999997 37.299999999999997 C37.399999999999977 40.699999999999989 47.600000000000023 47.500000000000000 52.699999999999989 50.899999999999977 C52.699999999999989 57.250000000000000 52.699999999999989 69.949999999999989 52.699999999999989 76.300000000000011 C45.699999999999989 80.974999999999994 34.033333333333360 88.766666666666652 24.699999999999989 95.000000000000000 L0.000000000000000 78.599999999999994 L8.500000000000000 65.800000000000011 L24.699999999999989 76.599999999999994 L37.399999999999977 68.099999999999994 L37.399999999999977 59.100000000000023 L17.000000000000000 45.500000000000000 L17.000000000000000 27.100000000000023 L24.199999999999989 19.899999999999977 L14.500000000000000 10.199999999999989 L24.699999999999989 0.000000000000000 L34.899999999999977 10.199999999999989 L25.100000000000023 19.899999999999977 L32.300000000000011 27.100000000000023 L32.300000000000011 37.300000000000011 z" />
<glyph unicode="A" horiz-adv-x="56" d="M69.299999999999997 10.800000000000001 L58.500000000000000 0.000000000000000 L48.600000000000023 9.899999999999977 L48.600000000000023 38.600000000000023 L32.000000000000000 38.600000000000023 L32.000000000000000 18.899999999999977 L22.300000000000011 9.199999999999989 L13.100000000000023 0.000000000000000 L2.300000000000011 10.699999999999989 L7.699999999999989 16.100000000000023 L7.699999999999989 38.500000000000000 L0.000000000000000 46.199999999999989 L7.699999999999989 53.899999999999977 L7.699999999999989 76.300000000000011 L35.699999999999989 95.000000000000000 L63.800000000000011 76.300000000000011 L63.800000000000011 16.199999999999989 L69.300000000000011 10.800000000000011 zM23.000000000000000 68.099999999999994 L23.000000000000000 53.899999999999977 L26.800000000000011 53.899999999999977 L26.800000000000011 70.599999999999994 L23.000000000000000 68.099999999999994 zM26.800000000000001 38.600000000000001 L23.000000000000000 38.600000000000023 L23.000000000000000 17.100000000000023 L26.800000000000011 20.899999999999977 L26.800000000000011 38.600000000000023 zM48.500000000000000 53.899999999999999 L48.500000000000000 68.099999999999994 L35.699999999999989 76.599999999999994 L31.899999999999977 74.000000000000000 L31.899999999999977 53.899999999999977 L48.500000000000000 53.899999999999977 z" />
<glyph unicode="B" horiz-adv-x="56" d="M63.899999999999999 75.299999999999997 L63.899999999999977 59.300000000000011 L53.500000000000000 52.300000000000011 L63.899999999999977 45.300000000000011 L63.899999999999977 18.800000000000011 L35.800000000000011 0.100000000000023 L22.199999999999989 9.100000000000023 L13.100000000000023 0.000000000000000 L2.300000000000011 10.800000000000011 L7.699999999999989 16.199999999999989 L7.699999999999989 38.600000000000023 L0.000000000000000 46.300000000000011 L7.600000000000023 54.000000000000000 L7.600000000000023 78.900000000000006 L2.199999999999989 84.300000000000011 L13.100000000000023 95.199999999999989 L22.199999999999989 86.099999999999994 L35.899999999999977 95.199999999999989 L63.800000000000011 75.300000000000011 L63.899999999999977 75.300000000000011 zM35.600000000000001 76.700000000000003 L31.899999999999977 74.199999999999989 L31.899999999999977 56.399999999999977 L48.500000000000000 67.400000000000006 L35.600000000000023 76.699999999999989 zM23.000000000000000 50.399999999999999 L26.800000000000011 53.000000000000000 L26.800000000000011 70.800000000000011 L23.000000000000000 68.199999999999989 L23.000000000000000 50.399999999999977 zM23.000000000000000 27.000000000000000 L26.800000000000011 24.500000000000000 L26.800000000000011 34.600000000000023 L23.000000000000000 32.000000000000000 L23.000000000000000 27.000000000000000 zM39.600000000000001 43.100000000000001 L31.899999999999977 38.000000000000000 L31.899999999999977 21.100000000000023 L35.699999999999989 18.500000000000000 L48.500000000000000 27.000000000000000 L48.500000000000000 37.100000000000023 L39.600000000000023 43.100000000000023 z" />
<glyph unicode="C" horiz-adv-x="56" d="M63.799999999999997 29.600000000000001 L63.800000000000011 18.699999999999989 L35.699999999999989 0.000000000000000 L7.699999999999989 18.699999999999989 L7.699999999999989 38.500000000000000 L0.000000000000000 46.199999999999989 L7.699999999999989 53.899999999999977 L7.699999999999989 76.300000000000011 L35.699999999999989 95.000000000000000 L63.800000000000011 76.300000000000011 L63.800000000000011 64.199999999999989 L48.500000000000000 54.300000000000011 L48.500000000000000 68.099999999999994 L35.699999999999989 76.599999999999994 L31.899999999999977 74.000000000000000 L31.899999999999977 21.000000000000000 L35.699999999999989 18.500000000000000 L48.500000000000000 27.000000000000000 L48.500000000000000 39.500000000000000 L63.800000000000011 29.600000000000023 zM26.800000000000001 38.600000000000001 L23.000000000000000 38.600000000000023 L23.000000000000000 26.899999999999977 L26.800000000000011 24.399999999999977 L26.800000000000011 38.600000000000023 zM26.800000000000001 48.799999999999997 L23.000000000000000 48.800000000000011 L23.000000000000000 43.699999999999989 L26.800000000000011 43.699999999999989 L26.800000000000011 48.800000000000011 zM26.800000000000001 70.700000000000003 L23.000000000000000 68.099999999999994 L23.000000000000000 53.899999999999977 L26.800000000000011 53.899999999999977 L26.800000000000011 70.699999999999989 z" />
<glyph unicode="D" horiz-adv-x="56" d="M63.899999999999999 76.200000000000003 L63.899999999999977 18.800000000000011 L35.800000000000011 0.100000000000023 L22.199999999999989 9.100000000000023 L13.100000000000023 0.000000000000000 L2.300000000000011 10.699999999999989 L7.699999999999989 16.100000000000023 L7.699999999999989 38.500000000000000 L0.000000000000000 46.199999999999989 L7.600000000000023 53.899999999999977 L7.600000000000023 78.800000000000011 L2.199999999999989 84.199999999999989 L13.100000000000023 95.000000000000000 L22.100000000000023 86.000000000000000 L35.699999999999989 95.000000000000000 L63.899999999999977 76.199999999999989 zM26.800000000000001 48.700000000000003 L23.000000000000000 48.699999999999989 L23.000000000000000 43.600000000000023 L26.800000000000011 43.600000000000023 L26.800000000000011 48.699999999999989 zM26.800000000000001 70.599999999999994 L23.000000000000000 68.000000000000000 L23.000000000000000 53.899999999999977 L26.800000000000011 53.899999999999977 L26.800000000000011 70.599999999999994 zM23.000000000000000 26.899999999999999 L26.800000000000011 24.300000000000011 L26.800000000000011 38.500000000000000 L23.000000000000000 38.500000000000000 L23.000000000000000 26.899999999999977 zM48.500000000000000 68.000000000000000 L35.699999999999989 76.599999999999994 L31.899999999999977 74.000000000000000 L31.899999999999977 21.000000000000000 L35.699999999999989 18.399999999999977 L48.500000000000000 26.899999999999977 L48.500000000000000 68.000000000000000 z" />
<glyph unicode="E" horiz-adv-x="56" d="M48.500000000000000 54.299999999999997 L48.500000000000000 68.099999999999994 L35.699999999999989 76.599999999999994 L31.899999999999977 74.000000000000000 L31.899999999999977 53.899999999999977 L40.800000000000011 53.899999999999977 L31.899999999999977 38.600000000000023 L31.899999999999977 21.000000000000000 L35.699999999999989 18.500000000000000 L48.500000000000000 27.000000000000000 L48.500000000000000 39.500000000000000 L63.800000000000011 29.600000000000023 L63.800000000000011 18.699999999999989 L35.699999999999989 0.000000000000000 L7.699999999999989 18.699999999999989 L7.699999999999989 38.500000000000000 L0.000000000000000 46.199999999999989 L7.699999999999989 53.899999999999977 L7.699999999999989 76.300000000000011 L35.699999999999989 95.000000000000000 L63.800000000000011 76.300000000000011 L63.800000000000011 64.199999999999989 L48.500000000000000 54.300000000000011 zM26.800000000000001 38.600000000000001 L23.000000000000000 38.600000000000023 L23.000000000000000 26.899999999999977 L26.800000000000011 24.399999999999977 L26.800000000000011 38.600000000000023 zM26.800000000000001 70.700000000000003 L23.000000000000000 68.099999999999994 L23.000000000000000 53.899999999999977 L26.800000000000011 53.899999999999977 L26.800000000000011 70.699999999999989 z" />
<glyph unicode="F" horiz-adv-x="56" d="M63.899999999999999 76.299999999999997 L63.899999999999977 64.199999999999989 L48.600000000000023 54.300000000000011 L48.600000000000023 68.099999999999994 L35.800000000000011 76.599999999999994 L32.000000000000000 74.000000000000000 L32.000000000000000 53.899999999999977 L40.899999999999977 53.899999999999977 L40.899999999999977 38.600000000000023 L32.000000000000000 38.600000000000023 L32.000000000000000 18.899999999999977 L22.300000000000011 9.199999999999989 L13.100000000000023 0.000000000000000 L2.300000000000011 10.699999999999989 L7.699999999999989 16.100000000000023 L7.699999999999989 38.500000000000000 L0.000000000000000 46.199999999999989 L7.699999999999989 53.899999999999977 L7.699999999999989 76.300000000000011 L35.699999999999989 95.000000000000000 L63.899999999999977 76.300000000000011 zM26.800000000000001 38.600000000000001 L23.000000000000000 38.600000000000023 L23.000000000000000 17.100000000000023 L26.800000000000011 20.899999999999977 L26.800000000000011 38.600000000000023 zM26.800000000000001 70.700000000000003 L23.000000000000000 68.099999999999994 L23.000000000000000 53.899999999999977 L26.800000000000011 53.899999999999977 L26.800000000000011 70.699999999999989 z" />
<glyph unicode="G" horiz-adv-x="56" d="M48.500000000000000 54.299999999999997 L48.500000000000000 68.099999999999994 L35.699999999999989 76.599999999999994 L31.899999999999977 74.000000000000000 L31.899999999999977 21.000000000000000 L35.699999999999989 18.500000000000000 L48.500000000000000 27.000000000000000 L48.500000000000000 38.600000000000023 L39.600000000000023 38.600000000000023 L39.600000000000023 53.899999999999977 L63.800000000000011 53.899999999999977 L63.800000000000011 18.699999999999989 L35.699999999999989 0.000000000000000 L7.699999999999989 18.699999999999989 L7.699999999999989 38.500000000000000 L0.000000000000000 46.199999999999989 L7.699999999999989 53.899999999999977 L7.699999999999989 76.300000000000011 L35.699999999999989 95.000000000000000 L63.800000000000011 76.300000000000011 L63.800000000000011 64.199999999999989 L48.500000000000000 54.300000000000011 zM26.800000000000001 48.799999999999997 L23.000000000000000 48.800000000000011 L23.000000000000000 43.699999999999989 L26.800000000000011 43.699999999999989 L26.800000000000011 48.800000000000011 zM26.800000000000001 24.399999999999999 L26.800000000000011 38.600000000000023 L23.000000000000000 38.600000000000023 L23.000000000000000 26.899999999999977 L26.800000000000011 24.399999999999977 zM26.800000000000001 70.700000000000003 L23.000000000000000 68.099999999999994 L23.000000000000000 53.899999999999977 L26.800000000000011 53.899999999999977 L26.800000000000011 70.699999999999989 z" />
<glyph unicode="H" horiz-adv-x="56" d="M69.299999999999997 10.900000000000000 L58.500000000000000 0.100000000000023 L48.600000000000023 10.000000000000000 L48.600000000000023 38.800000000000011 L35.800000000000011 47.300000000000011 L32.000000000000000 44.699999999999989 L32.000000000000000 18.899999999999977 L22.300000000000011 9.199999999999989 L13.100000000000023 0.000000000000000 L2.300000000000011 10.699999999999989 L7.699999999999989 16.100000000000023 L7.699999999999989 38.500000000000000 L0.000000000000000 46.199999999999989 L7.699999999999989 53.899999999999977 L7.699999999999989 76.300000000000011 L35.699999999999989 95.000000000000000 L55.300000000000011 82.000000000000000 L46.800000000000011 69.199999999999989 L35.699999999999989 76.599999999999994 L31.899999999999977 74.000000000000000 L31.899999999999977 63.099999999999994 L35.699999999999989 65.699999999999989 L63.800000000000011 46.899999999999977 L63.800000000000011 16.199999999999989 L69.300000000000011 10.899999999999977 zM26.800000000000001 70.700000000000003 L23.000000000000000 68.099999999999994 L23.000000000000000 57.100000000000023 L26.800000000000011 59.699999999999989 L26.800000000000011 70.699999999999989 zM26.800000000000001 41.299999999999997 L23.000000000000000 38.699999999999989 L23.000000000000000 17.100000000000023 L26.800000000000011 20.899999999999977 L26.800000000000011 41.300000000000011 z" />
<glyph unicode="I" horiz-adv-x="56" d="M32.000000000000000 76.200000000000003 L32.000000000000000 18.899999999999977 L22.300000000000011 9.199999999999989 L13.100000000000023 0.000000000000000 L2.300000000000011 10.699999999999989 L7.699999999999989 16.100000000000023 L7.699999999999989 38.500000000000000 L0.000000000000000 46.199999999999989 L7.600000000000023 53.899999999999977 L7.600000000000023 78.800000000000011 L2.199999999999989 84.199999999999989 L13.100000000000023 95.000000000000000 L22.199999999999989 85.800000000000011 L32.000000000000000 76.199999999999989 zM26.800000000000001 74.099999999999994 L23.000000000000000 77.900000000000006 L23.000000000000000 53.899999999999977 L26.800000000000011 53.899999999999977 L26.800000000000011 74.099999999999994 zM23.000000000000000 48.799999999999997 L23.000000000000000 43.699999999999989 L26.800000000000011 43.699999999999989 L26.800000000000011 48.800000000000011 L23.000000000000000 48.800000000000011 zM26.800000000000001 20.899999999999999 L26.800000000000011 38.500000000000000 L23.000000000000000 38.500000000000000 L23.000000000000000 17.100000000000023 L26.800000000000011 20.899999999999977 z" />
<glyph unicode="J" horiz-adv-x="56" d="M63.899999999999999 46.299999999999997 L56.199999999999989 38.600000000000023 L56.199999999999989 18.699999999999989 L28.100000000000023 0.000000000000000 L0.000000000000000 18.699999999999989 L0.000000000000000 33.899999999999977 L15.300000000000011 43.399999999999977 L15.300000000000011 26.899999999999977 L28.100000000000023 18.399999999999977 L31.899999999999977 21.000000000000000 L31.899999999999977 74.099999999999994 L28.100000000000023 76.699999999999989 L22.100000000000023 72.699999999999989 L13.600000000000023 85.400000000000006 L28.100000000000023 95.000000000000000 L56.100000000000023 76.300000000000011 L56.100000000000023 53.899999999999977 L63.899999999999977 46.300000000000011 zM37.000000000000000 43.700000000000003 L40.800000000000011 43.699999999999989 L40.800000000000011 48.800000000000011 L37.000000000000000 48.800000000000011 L37.000000000000000 43.699999999999989 zM37.000000000000000 70.599999999999994 L37.000000000000000 53.899999999999977 L40.800000000000011 53.899999999999977 L40.800000000000011 68.099999999999994 L37.000000000000000 70.599999999999994 zM40.799999999999997 27.000000000000000 L40.800000000000011 38.600000000000023 L37.000000000000000 38.600000000000023 L37.000000000000000 24.399999999999977 L40.800000000000011 27.000000000000000 z" />
<glyph unicode="K" horiz-adv-x="56" d="M63.899999999999999 44.000000000000000 L63.899999999999977 16.199999999999989 L69.300000000000011 10.800000000000011 L58.500000000000000 0.000000000000000 L48.600000000000023 9.899999999999977 L48.600000000000023 35.800000000000011 L40.000000000000000 41.500000000000000 L32.000000000000000 36.199999999999989 L32.000000000000000 19.000000000000000 L22.300000000000011 9.300000000000011 L13.100000000000023 0.100000000000023 L2.300000000000011 10.800000000000011 L7.699999999999989 16.199999999999989 L7.699999999999989 38.600000000000023 L0.000000000000000 46.300000000000011 L7.600000000000023 54.000000000000000 L7.600000000000023 78.900000000000006 L2.199999999999989 84.300000000000011 L13.100000000000023 95.099999999999994 L22.199999999999989 86.000000000000000 L31.899999999999977 76.300000000000011 L31.899999999999977 54.699999999999989 L48.500000000000000 65.699999999999989 L48.500000000000000 85.199999999999989 L58.399999999999977 95.099999999999994 L69.199999999999989 84.300000000000011 L63.800000000000011 78.900000000000006 L63.800000000000011 57.399999999999977 L53.699999999999989 50.699999999999989 L63.800000000000011 44.000000000000000 L63.899999999999977 44.000000000000000 zM26.800000000000001 74.200000000000003 L23.000000000000000 78.000000000000000 L23.000000000000000 48.699999999999989 L26.800000000000011 51.199999999999989 L26.800000000000011 74.199999999999989 zM26.800000000000001 32.899999999999999 L23.000000000000000 30.300000000000011 L23.000000000000000 17.199999999999989 L26.800000000000011 21.000000000000000 L26.800000000000011 32.899999999999977 z" />
<glyph unicode="L" horiz-adv-x="56" d="M35.700000000000003 29.300000000000001 L60.500000000000000 12.699999999999989 L52.000000000000000 0.000000000000000 L35.800000000000011 10.800000000000011 L19.600000000000023 0.000000000000000 L7.699999999999989 6.399999999999977 L7.699999999999989 35.800000000000011 L0.000000000000000 43.500000000000000 L7.699999999999989 51.199999999999989 L7.699999999999989 73.599999999999994 L35.699999999999989 92.300000000000011 L60.399999999999977 75.800000000000011 L51.899999999999977 63.099999999999994 L35.699999999999989 73.900000000000006 L31.899999999999977 71.300000000000011 L31.899999999999977 26.800000000000011 L35.699999999999989 29.300000000000011 zM26.800000000000001 23.300000000000001 L26.800000000000011 35.800000000000011 L23.000000000000000 35.800000000000011 L23.000000000000000 20.800000000000011 L23.399999999999977 21.100000000000023 L26.800000000000011 23.300000000000011 zM26.800000000000001 46.100000000000001 L23.000000000000000 46.100000000000023 L23.000000000000000 41.000000000000000 L26.800000000000011 41.000000000000000 L26.800000000000011 46.100000000000023 zM23.000000000000000 65.400000000000006 L23.000000000000000 51.199999999999989 L26.800000000000011 51.199999999999989 L26.800000000000011 67.900000000000006 L23.000000000000000 65.400000000000006 z" />
<glyph unicode="M" horiz-adv-x="56" d="M89.900000000000006 10.800000000000001 L79.100000000000023 0.000000000000000 L69.199999999999989 9.899999999999977 L69.199999999999989 71.500000000000000 L61.500000000000000 76.599999999999994 L53.800000000000011 71.500000000000000 L53.800000000000011 19.300000000000011 L46.100000000000023 11.600000000000023 L38.399999999999977 19.300000000000011 L38.399999999999977 71.400000000000006 L32.000000000000000 75.699999999999989 L32.000000000000000 18.899999999999977 L22.300000000000011 9.199999999999989 L13.100000000000023 0.000000000000000 L2.300000000000011 10.699999999999989 L7.699999999999989 16.100000000000023 L7.699999999999989 38.500000000000000 L0.000000000000000 46.199999999999989 L7.600000000000023 53.899999999999977 L7.600000000000023 78.800000000000011 L2.199999999999989 84.199999999999989 L13.100000000000023 95.000000000000000 L20.100000000000023 88.000000000000000 L30.600000000000023 95.000000000000000 L45.899999999999977 84.800000000000011 L61.300000000000011 95.000000000000000 L84.200000000000045 79.599999999999994 L84.200000000000045 16.199999999999989 L89.899999999999977 10.800000000000011 zM23.000000000000000 54.000000000000000 L26.800000000000011 54.000000000000000 L26.800000000000011 74.099999999999994 L23.000000000000000 71.500000000000000 L23.000000000000000 53.899999999999977 L23.000000000000000 54.000000000000000 zM23.000000000000000 48.799999999999997 L23.000000000000000 43.699999999999989 L26.800000000000011 43.699999999999989 L26.800000000000011 48.800000000000011 L23.000000000000000 48.800000000000011 zM26.800000000000001 20.899999999999999 L26.800000000000011 38.500000000000000 L23.000000000000000 38.500000000000000 L23.000000000000000 17.100000000000023 L26.800000000000011 20.899999999999977 z" />
<glyph unicode="N" horiz-adv-x="56" d="M69.200000000000003 10.800000000000001 L58.399999999999977 0.000000000000000 L48.500000000000000 9.899999999999977 L48.500000000000000 68.099999999999994 L35.800000000000011 76.699999999999989 L32.000000000000000 74.099999999999994 L32.000000000000000 19.000000000000000 L22.300000000000011 9.300000000000011 L13.100000000000023 0.100000000000023 L2.300000000000011 10.800000000000011 L7.699999999999989 16.199999999999989 L7.699999999999989 38.600000000000023 L0.000000000000000 46.300000000000011 L7.600000000000023 54.000000000000000 L7.600000000000023 78.900000000000006 L2.199999999999989 84.300000000000011 L13.100000000000023 95.099999999999994 L22.100000000000023 86.099999999999994 L35.699999999999989 95.099999999999994 L63.800000000000011 76.300000000000011 L63.800000000000011 16.300000000000011 L69.199999999999989 10.800000000000011 zM23.000000000000000 43.799999999999997 L26.800000000000011 43.800000000000011 L26.800000000000011 48.899999999999977 L23.000000000000000 48.899999999999977 L23.000000000000000 43.800000000000011 zM26.800000000000001 21.000000000000000 L26.800000000000011 38.600000000000023 L23.000000000000000 38.600000000000023 L23.000000000000000 17.199999999999989 L26.800000000000011 21.000000000000000 zM26.800000000000001 70.700000000000003 L23.000000000000000 68.099999999999994 L23.000000000000000 54.000000000000000 L26.800000000000011 54.000000000000000 L26.800000000000011 70.699999999999989 z" />
<glyph unicode="O" horiz-adv-x="56" d="M63.799999999999997 76.299999999999997 L63.800000000000011 18.699999999999989 L35.699999999999989 0.000000000000000 L7.699999999999989 18.699999999999989 L7.699999999999989 38.500000000000000 L0.000000000000000 46.199999999999989 L7.699999999999989 53.899999999999977 L7.699999999999989 76.300000000000011 L35.699999999999989 95.000000000000000 L63.800000000000011 76.300000000000011 zM26.800000000000001 48.799999999999997 L23.000000000000000 48.800000000000011 L23.000000000000000 43.699999999999989 L26.800000000000011 43.699999999999989 L26.800000000000011 48.800000000000011 zM23.000000000000000 68.099999999999994 L23.000000000000000 53.899999999999977 L26.800000000000011 53.899999999999977 L26.800000000000011 70.599999999999994 L23.000000000000000 68.099999999999994 zM23.000000000000000 26.899999999999999 L26.800000000000011 24.399999999999977 L26.800000000000011 38.600000000000023 L23.000000000000000 38.600000000000023 L23.000000000000000 26.899999999999977 zM48.500000000000000 68.099999999999994 L35.699999999999989 76.599999999999994 L31.899999999999977 74.000000000000000 L31.899999999999977 21.000000000000000 L35.699999999999989 18.399999999999977 L48.500000000000000 26.899999999999977 L48.500000000000000 68.099999999999994 z" />
<glyph unicode="P" horiz-adv-x="56" d="M63.799999999999997 76.200000000000003 L63.800000000000011 44.199999999999989 L40.000000000000000 28.300000000000011 L32.000000000000000 40.500000000000000 L32.000000000000000 18.899999999999977 L22.300000000000011 9.199999999999989 L13.100000000000023 0.000000000000000 L2.300000000000011 10.699999999999989 L7.699999999999989 16.100000000000023 L7.699999999999989 38.500000000000000 L0.000000000000000 46.199999999999989 L7.600000000000023 53.899999999999977 L7.600000000000023 78.800000000000011 L2.199999999999989 84.199999999999989 L13.100000000000023 95.000000000000000 L22.100000000000023 86.000000000000000 L35.699999999999989 95.000000000000000 L63.800000000000011 76.199999999999989 zM26.800000000000001 53.899999999999999 L26.800000000000011 70.599999999999994 L23.000000000000000 68.000000000000000 L23.000000000000000 53.899999999999977 L26.800000000000011 53.899999999999977 zM23.000000000000000 48.799999999999997 L23.000000000000000 43.699999999999989 L26.800000000000011 43.699999999999989 L26.800000000000011 48.800000000000011 L23.000000000000000 48.800000000000011 zM26.800000000000001 20.899999999999999 L26.800000000000011 38.500000000000000 L23.000000000000000 38.500000000000000 L23.000000000000000 17.100000000000023 L26.800000000000011 20.899999999999977 zM48.500000000000000 68.000000000000000 L35.699999999999989 76.599999999999994 L31.899999999999977 74.000000000000000 L31.899999999999977 41.399999999999977 L48.500000000000000 52.399999999999977 L48.500000000000000 68.000000000000000 z" />
<glyph unicode="Q" horiz-adv-x="56" d="M63.799999999999997 19.100000000000001 L49.500000000000000 9.600000000000023 L59.100000000000023 3.199999999999989 L50.600000000000023 -9.500000000000000 L35.699999999999989 0.399999999999977 L7.699999999999989 19.100000000000023 L7.699999999999989 38.899999999999977 L0.000000000000000 46.600000000000023 L7.699999999999989 54.300000000000011 L7.699999999999989 76.699999999999989 L35.699999999999989 95.400000000000006 L63.800000000000011 76.699999999999989 L63.800000000000011 19.100000000000023 zM35.700000000000003 77.000000000000000 L31.899999999999977 74.400000000000006 L31.899999999999977 21.399999999999977 L35.699999999999989 18.899999999999977 L48.500000000000000 27.399999999999977 L48.500000000000000 68.500000000000000 L35.699999999999989 77.000000000000000 zM23.000000000000000 44.100000000000001 L26.800000000000011 44.100000000000023 L26.800000000000011 49.199999999999989 L23.000000000000000 49.199999999999989 L23.000000000000000 44.100000000000023 zM23.000000000000000 68.500000000000000 L23.000000000000000 54.300000000000011 L26.800000000000011 54.300000000000011 L26.800000000000011 71.000000000000000 L23.000000000000000 68.500000000000000 zM23.000000000000000 27.300000000000001 L26.800000000000011 24.800000000000011 L26.800000000000011 39.000000000000000 L23.000000000000000 39.000000000000000 L23.000000000000000 27.300000000000011 z" />
<glyph unicode="R" horiz-adv-x="56" d="M69.299999999999997 10.900000000000000 L58.500000000000000 0.100000000000023 L48.600000000000023 10.000000000000000 L48.600000000000023 35.899999999999977 L38.699999999999989 42.500000000000000 L32.000000000000000 38.000000000000000 L32.000000000000000 18.899999999999977 L22.300000000000011 9.199999999999989 L13.100000000000023 0.000000000000000 L2.300000000000011 10.800000000000011 L7.699999999999989 16.199999999999989 L7.699999999999989 38.600000000000023 L0.000000000000000 46.300000000000011 L7.600000000000023 54.000000000000000 L7.600000000000023 78.900000000000006 L2.199999999999989 84.300000000000011 L13.100000000000023 95.199999999999989 L22.199999999999989 86.099999999999994 L35.899999999999977 95.199999999999989 L63.800000000000011 75.300000000000011 L63.800000000000011 59.300000000000011 L52.399999999999977 51.699999999999989 L63.800000000000011 44.100000000000023 L63.800000000000011 16.300000000000011 L69.300000000000011 10.899999999999977 zM35.600000000000001 76.700000000000003 L31.899999999999977 74.199999999999989 L31.899999999999977 56.399999999999977 L48.500000000000000 67.400000000000006 L35.600000000000023 76.699999999999989 zM26.800000000000001 70.799999999999997 L23.000000000000000 68.199999999999989 L23.000000000000000 50.399999999999977 L26.800000000000011 53.000000000000000 L26.800000000000011 70.800000000000011 zM26.800000000000001 34.600000000000001 L23.000000000000000 32.000000000000000 L23.000000000000000 17.199999999999989 L26.800000000000011 21.000000000000000 L26.800000000000011 34.600000000000023 z" />
<glyph unicode="S" horiz-adv-x="56" d="M27.800000000000001 72.900000000000006 L61.600000000000023 50.399999999999977 L61.600000000000023 18.800000000000011 L33.300000000000011 0.000000000000000 L20.199999999999989 9.500000000000000 L10.800000000000011 0.100000000000023 L0.000000000000000 10.899999999999977 L18.600000000000023 29.600000000000023 L33.600000000000023 18.699999999999989 L39.100000000000023 22.300000000000011 L5.399999999999977 44.800000000000011 L5.399999999999977 76.400000000000006 L33.699999999999989 95.199999999999989 L46.699999999999989 85.699999999999989 L56.100000000000023 95.099999999999994 L67.000000000000000 84.300000000000011 L48.300000000000011 65.599999999999994 L33.300000000000011 76.500000000000000 L27.800000000000011 72.900000000000006 zM46.200000000000003 42.200000000000003 L20.699999999999989 59.199999999999989 L20.699999999999989 52.899999999999977 L46.199999999999989 35.899999999999977 L46.199999999999989 42.199999999999989 z" />
<glyph unicode="T" horiz-adv-x="56" d="M58.000000000000000 29.199999999999999 L66.500000000000000 16.399999999999977 L41.800000000000011 0.000000000000000 L13.699999999999989 18.699999999999989 L13.699999999999989 38.500000000000000 L6.000000000000000 46.199999999999989 L13.699999999999989 53.899999999999977 L13.699999999999989 64.099999999999994 L29.000000000000000 78.800000000000011 L29.000000000000000 53.899999999999977 L32.800000000000011 53.899999999999977 L32.800000000000011 82.500000000000000 L28.100000000000023 85.599999999999994 L10.800000000000011 68.300000000000011 L0.000000000000000 79.099999999999994 L26.100000000000023 105.199999999999989 L55.399999999999977 86.099999999999994 L64.399999999999977 95.099999999999994 L75.299999999999955 84.199999999999989 L57.500000000000000 66.500000000000000 L38.000000000000000 79.199999999999989 L38.000000000000000 21.000000000000000 L41.800000000000011 18.500000000000000 L58.000000000000000 29.199999999999989 zM29.000000000000000 48.799999999999997 L29.000000000000000 43.699999999999989 L32.800000000000011 43.699999999999989 L32.800000000000011 48.800000000000011 L29.000000000000000 48.800000000000011 zM29.000000000000000 27.000000000000000 L32.800000000000011 24.399999999999977 L32.800000000000011 38.600000000000023 L29.000000000000000 38.600000000000023 L29.000000000000000 27.000000000000000 z" />
<glyph unicode="U" horiz-adv-x="56" d="M63.799999999999997 16.199999999999999 L69.199999999999989 10.800000000000011 L58.399999999999977 0.000000000000000 L49.300000000000011 9.100000000000023 L35.699999999999989 0.100000000000023 L7.699999999999989 18.800000000000011 L7.699999999999989 38.600000000000023 L0.000000000000000 46.300000000000011 L7.600000000000023 54.000000000000000 L7.600000000000023 78.900000000000006 L2.199999999999989 84.300000000000011 L13.100000000000023 95.099999999999994 L22.199999999999989 86.000000000000000 L31.899999999999977 76.300000000000011 L31.899999999999977 21.100000000000023 L35.699999999999989 18.500000000000000 L48.500000000000000 27.000000000000000 L48.500000000000000 85.199999999999989 L58.399999999999977 95.099999999999994 L69.199999999999989 84.300000000000011 L63.800000000000011 78.900000000000006 L63.800000000000011 16.199999999999989 zM26.800000000000001 24.399999999999999 L26.800000000000011 38.600000000000023 L23.000000000000000 38.600000000000023 L23.000000000000000 27.000000000000000 L26.800000000000011 24.399999999999977 zM23.000000000000000 48.899999999999999 L23.000000000000000 43.800000000000011 L26.800000000000011 43.800000000000011 L26.800000000000011 48.899999999999977 L23.000000000000000 48.899999999999977 zM23.000000000000000 54.000000000000000 L26.800000000000011 54.000000000000000 L26.800000000000011 74.199999999999989 L23.000000000000000 78.000000000000000 L23.000000000000000 54.000000000000000 z" />
<glyph unicode="V" horiz-adv-x="56" d="M69.200000000000003 84.200000000000003 L63.800000000000011 78.800000000000011 L63.800000000000011 18.699999999999989 L35.699999999999989 0.000000000000000 L7.699999999999989 18.699999999999989 L7.699999999999989 38.500000000000000 L0.000000000000000 46.199999999999989 L7.600000000000023 53.899999999999977 L7.600000000000023 78.800000000000011 L2.199999999999989 84.199999999999989 L13.100000000000023 95.000000000000000 L22.199999999999989 85.900000000000006 L31.899999999999977 76.199999999999989 L31.899999999999977 21.000000000000000 L35.699999999999989 18.399999999999977 L48.500000000000000 26.899999999999977 L48.500000000000000 85.099999999999994 L58.399999999999977 95.000000000000000 L69.199999999999989 84.199999999999989 zM26.800000000000001 24.300000000000001 L26.800000000000011 38.500000000000000 L23.000000000000000 38.500000000000000 L23.000000000000000 26.899999999999977 L26.800000000000011 24.300000000000011 zM23.000000000000000 48.799999999999997 L23.000000000000000 43.699999999999989 L26.800000000000011 43.699999999999989 L26.800000000000011 48.800000000000011 L23.000000000000000 48.800000000000011 zM23.000000000000000 53.899999999999999 L26.800000000000011 53.899999999999977 L26.800000000000011 74.099999999999994 L23.000000000000000 77.900000000000006 L23.000000000000000 53.899999999999977 z" />
<glyph unicode="W" horiz-adv-x="56" d="M89.700000000000003 84.200000000000003 L84.299999999999955 78.800000000000011 L84.299999999999955 15.300000000000011 L61.300000000000011 0.000000000000000 L46.000000000000000 10.199999999999989 L30.699999999999989 0.000000000000000 L7.699999999999989 15.300000000000011 L7.699999999999989 38.500000000000000 L0.000000000000000 46.199999999999989 L7.600000000000023 53.899999999999977 L7.600000000000023 78.800000000000011 L2.199999999999989 84.199999999999989 L13.100000000000023 95.000000000000000 L22.000000000000000 85.900000000000006 L31.699999999999989 76.199999999999989 L31.699999999999989 19.100000000000023 L38.100000000000023 23.399999999999977 L38.100000000000023 75.500000000000000 L45.800000000000011 83.199999999999989 L53.500000000000000 75.500000000000000 L53.500000000000000 23.500000000000000 L61.199999999999989 18.399999999999977 L68.899999999999977 23.500000000000000 L68.899999999999977 85.099999999999994 L78.799999999999955 95.000000000000000 L89.700000000000045 84.199999999999989 zM26.800000000000001 48.700000000000003 L23.000000000000000 48.699999999999989 L23.000000000000000 43.600000000000023 L26.800000000000011 43.600000000000023 L26.800000000000011 48.699999999999989 zM23.000000000000000 23.500000000000000 L26.800000000000011 20.899999999999977 L26.800000000000011 38.500000000000000 L23.000000000000000 38.500000000000000 L23.000000000000000 23.500000000000000 zM26.800000000000001 74.099999999999994 L23.000000000000000 77.900000000000006 L23.000000000000000 53.899999999999977 L26.800000000000011 53.899999999999977 L26.800000000000011 74.099999999999994 z" />
<glyph unicode="X" horiz-adv-x="56" d="M46.899999999999999 39.881023454199998 C49.300000000000011 39.881023454199976 54.100000000000023 39.881023454199976 56.500000000000000 39.881023454199976 C56.500000000000000 43.706023454200022 56.500000000000000 51.356023454199999 56.500000000000000 55.181023454199988 C54.100000000000023 55.181023454199988 49.300000000000011 55.181023454199988 46.899999999999977 55.181023454199988 C50.175000000000011 60.706023454200022 55.633333333333326 69.914356787533336 60.000000000000000 77.281023454200010 L67.000000000000000 84.281023454200010 L56.100000000000023 95.081023454199993 L47.800000000000011 86.781023454200010 L33.500000000000000 62.581023454200022 L19.199999999999989 86.781023454200010 L10.800000000000011 95.081023454199993 L0.000000000000000 84.281023454200010 L7.000000000000000 77.281023454200010 L20.100000000000023 55.181023454199988 L10.500000000000000 55.181023454199988 L10.500000000000000 39.881023454199976 L20.100000000000023 39.881023454199976 L7.000000000000000 17.881023454199976 L0.000000000000000 10.881023454199976 L10.800000000000011 0.081023454200022 L19.199999999999989 8.381023454199976 L33.500000000000000 32.581023454200022 L47.800000000000011 8.381023454199976 L56.100000000000023 0.081023454200022 L67.000000000000000 10.881023454199976 L60.000000000000000 17.881023454199976 L46.899999999999977 39.881023454199976 z" />
<glyph unicode="Y" horiz-adv-x="56" d="M69.299999999999997 84.250000000000000 L63.899999999999977 78.849999999999994 L63.899999999999977 -10.550000000000011 L35.800000000000011 -29.250000000000000 L7.699999999999989 -10.550000000000011 L7.699999999999989 13.750000000000000 L23.000000000000000 3.550000000000011 L23.000000000000000 -2.350000000000023 L35.699999999999989 -10.949999999999989 L48.500000000000000 -2.350000000000023 L48.500000000000000 8.550000000000011 L35.699999999999989 0.050000000000011 L7.699999999999989 18.750000000000000 L7.699999999999989 38.550000000000011 L0.000000000000000 46.250000000000000 L7.600000000000023 53.949999999999989 L7.600000000000023 78.849999999999994 L2.199999999999989 84.250000000000000 L13.100000000000023 95.050000000000011 L22.199999999999989 85.949999999999989 L31.899999999999977 76.250000000000000 L31.899999999999977 21.050000000000011 L35.699999999999989 18.449999999999989 L48.500000000000000 26.949999999999989 L48.500000000000000 85.150000000000006 L58.399999999999977 95.050000000000011 L69.300000000000011 84.250000000000000 zM26.800000000000001 48.750000000000000 L23.000000000000000 48.750000000000000 L23.000000000000000 43.649999999999977 L26.800000000000011 43.649999999999977 L26.800000000000011 48.750000000000000 zM26.800000000000001 24.350000000000001 L26.800000000000011 38.550000000000011 L23.000000000000000 38.550000000000011 L23.000000000000000 26.949999999999989 L26.800000000000011 24.350000000000023 zM23.000000000000000 53.950000000000003 L26.800000000000011 53.949999999999989 L26.800000000000011 74.150000000000006 L23.000000000000000 77.949999999999989 L23.000000000000000 53.949999999999989 z" />
<glyph unicode="Z" horiz-adv-x="56" d="M46.899999999999999 20.699999999999999 C41.399999999999977 20.699999999999989 30.399999999999977 20.699999999999989 24.899999999999977 20.699999999999989 C26.500000000000000 24.300000000000011 29.699999999999989 31.500000000000000 31.300000000000011 35.100000000000023 C33.324999999999989 33.725000000000023 37.375000000000000 30.975000000000023 39.399999999999977 29.600000000000023 C41.524999999999977 32.800000000000011 45.066666666666663 38.133333333333326 47.899999999999977 42.399999999999977 L37.600000000000023 49.300000000000011 L55.500000000000000 89.599999999999994 L16.199999999999989 89.599999999999994 L10.800000000000011 95.000000000000000 L0.000000000000000 84.199999999999989 L9.899999999999977 74.300000000000011 L31.899999999999977 74.300000000000011 L24.600000000000023 57.899999999999977 L17.300000000000011 62.800000000000011 L8.800000000000011 50.000000000000000 L18.300000000000011 43.699999999999989 L1.300000000000011 5.399999999999977 L40.500000000000000 5.399999999999977 L45.899999999999977 0.000000000000000 L56.800000000000011 10.800000000000011 L46.899999999999977 20.699999999999989 z" />
<glyph unicode="a" horiz-adv-x="56" d="M23.000000000000000 0.000000000000000 L0.000000000000000 15.300000000000011 L0.000000000000000 56.699999999999989 L23.000000000000000 72.000000000000000 L46.000000000000000 56.699999999999989 L46.000000000000000 17.500000000000000 L51.399999999999977 12.100000000000023 L40.500000000000000 1.199999999999989 L34.199999999999989 7.500000000000000 L23.000000000000000 0.000000000000000 zM15.300000000000001 23.500000000000000 L23.000000000000000 18.399999999999977 L30.699999999999989 23.500000000000000 L30.699999999999989 48.500000000000000 L23.000000000000000 53.600000000000023 L15.300000000000011 48.500000000000000 L15.300000000000011 23.500000000000000 z" />
<glyph unicode="b" horiz-adv-x="56" d="M51.399999999999999 56.600000000000001 L51.399999999999977 15.300000000000011 L28.399999999999977 0.000000000000000 L17.100000000000023 7.500000000000000 L10.800000000000011 1.199999999999989 L0.000000000000000 12.000000000000000 L5.399999999999977 17.399999999999977 L5.399999999999977 80.000000000000000 L0.000000000000000 85.400000000000006 L10.800000000000011 96.199999999999989 L20.699999999999989 86.300000000000011 L20.699999999999989 66.800000000000011 L28.399999999999977 71.900000000000006 L51.399999999999977 56.600000000000023 zM36.000000000000000 48.399999999999999 L28.300000000000011 53.500000000000000 L20.600000000000023 48.399999999999977 L20.600000000000023 23.399999999999977 L28.300000000000011 18.300000000000011 L36.000000000000000 23.399999999999977 L36.000000000000000 48.399999999999977 z" />
<glyph unicode="c" horiz-adv-x="56" d="M30.600000000000001 30.500000000000000 C30.600000000000023 28.750000000000000 30.600000000000023 25.250000000000000 30.600000000000023 23.500000000000000 C28.699999999999989 22.225000000000023 24.899999999999977 19.675000000000011 23.000000000000000 18.399999999999977 C21.074999999999989 19.675000000000011 17.225000000000023 22.225000000000023 15.300000000000011 23.500000000000000 C15.300000000000011 29.750000000000000 15.300000000000011 42.250000000000000 15.300000000000011 48.500000000000000 C17.225000000000023 49.774999999999977 21.074999999999989 52.324999999999989 23.000000000000000 53.600000000000023 C24.899999999999977 52.324999999999989 28.699999999999989 49.774999999999977 30.600000000000023 48.500000000000000 C30.600000000000023 46.125000000000000 30.600000000000023 41.375000000000000 30.600000000000023 39.000000000000000 C34.425000000000011 41.550000000000011 42.074999999999989 46.649999999999977 45.899999999999977 49.199999999999989 C45.899999999999977 51.074999999999989 45.899999999999977 54.199999999999989 45.899999999999977 56.699999999999989 L23.000000000000000 72.000000000000000 L0.000000000000000 56.699999999999989 L0.000000000000000 15.300000000000011 L23.000000000000000 0.000000000000000 L45.899999999999977 15.300000000000011 L45.899999999999977 20.300000000000011 L30.600000000000023 30.500000000000000 z" />
<glyph unicode="d" horiz-adv-x="56" d="M51.399999999999999 12.000000000000000 L40.600000000000023 1.199999999999989 L34.300000000000011 7.500000000000000 L23.000000000000000 0.000000000000000 L0.000000000000000 15.300000000000011 L0.000000000000000 56.699999999999989 L23.000000000000000 72.000000000000000 L30.600000000000023 67.000000000000000 L30.600000000000023 80.099999999999994 L25.199999999999989 85.500000000000000 L36.000000000000000 96.300000000000011 L45.899999999999977 86.400000000000006 L45.899999999999977 17.500000000000000 L51.399999999999977 12.000000000000000 zM30.699999999999999 23.500000000000000 L30.699999999999989 48.500000000000000 L23.000000000000000 53.600000000000023 L15.300000000000011 48.500000000000000 L15.300000000000011 23.500000000000000 L23.000000000000000 18.399999999999977 L30.600000000000023 23.500000000000000 L30.699999999999989 23.500000000000000 z" />
<glyph unicode="e" horiz-adv-x="56" d="M46.000000000000000 56.700000000000003 L46.000000000000000 43.500000000000000 L15.699999999999989 23.300000000000011 L23.000000000000000 18.399999999999977 L30.600000000000023 23.500000000000000 L30.600000000000023 30.500000000000000 L46.000000000000000 20.199999999999989 L46.000000000000000 15.300000000000011 L23.000000000000000 0.000000000000000 L0.000000000000000 15.300000000000011 L0.000000000000000 56.699999999999989 L23.000000000000000 72.000000000000000 L46.000000000000000 56.699999999999989 zM15.300000000000001 48.600000000000001 L15.300000000000011 41.500000000000000 L28.300000000000011 50.100000000000023 L23.000000000000000 53.600000000000023 L15.300000000000011 48.600000000000023 z" />
<glyph unicode="f" horiz-adv-x="56" d="M28.500000000000000 76.900000000000006 C31.274999999999977 75.050000000000011 36.824999999999989 71.349999999999994 39.600000000000023 69.500000000000000 C41.725000000000023 72.699999999999989 45.975000000000023 79.099999999999994 48.100000000000023 82.300000000000011 C43.199999999999989 85.574999999999989 33.399999999999977 92.125000000000000 28.500000000000000 95.400000000000006 C22.725000000000023 91.550000000000011 11.175000000000011 83.849999999999994 5.399999999999977 80.000000000000000 C5.399999999999977 64.074999999999989 5.399999999999977 32.225000000000023 5.399999999999977 16.300000000000011 C4.050000000000011 14.949999999999989 1.350000000000023 12.250000000000000 0.000000000000000 10.899999999999977 C2.725000000000023 8.175000000000011 8.175000000000011 2.725000000000023 10.899999999999977 0.000000000000000 C13.375000000000000 2.500000000000000 18.324999999999989 7.500000000000000 20.800000000000011 10.000000000000000 C20.800000000000011 17.199999999999989 20.800000000000011 29.199999999999989 20.800000000000011 38.800000000000011 L36.199999999999989 38.800000000000011 L36.199999999999989 54.100000000000023 L20.800000000000011 54.100000000000023 L20.800000000000011 71.800000000000011 L28.500000000000000 76.900000000000006 z" />
<glyph unicode="g" horiz-adv-x="56" d="M51.399999999999999 60.000000000000000 L46.000000000000000 54.600000000000023 L46.000000000000000 -15.199999999999989 L23.000000000000000 -30.500000000000000 L0.000000000000000 -15.199999999999989 L0.000000000000000 3.199999999999989 L3.800000000000011 5.699999999999989 L17.600000000000023 -3.500000000000000 L13.800000000000011 -6.000000000000000 L23.000000000000000 -12.100000000000023 L30.600000000000023 -7.000000000000000 L30.600000000000023 5.199999999999989 L27.199999999999989 2.899999999999977 L23.000000000000000 0.100000000000023 L0.000000000000000 15.399999999999977 L0.000000000000000 56.800000000000011 L23.000000000000000 72.099999999999994 L34.199999999999989 64.599999999999994 L40.500000000000000 70.900000000000006 L51.399999999999977 60.000000000000000 zM30.699999999999999 23.600000000000001 L30.699999999999989 48.600000000000023 L23.000000000000000 53.699999999999989 L15.300000000000011 48.600000000000023 L15.300000000000011 23.600000000000023 L23.000000000000000 18.500000000000000 L30.600000000000023 23.600000000000023 L30.699999999999989 23.600000000000023 z" />
<glyph unicode="h" horiz-adv-x="56" d="M51.399999999999999 16.199999999999999 C51.399999999999977 26.000000000000000 51.399999999999977 45.600000000000023 51.399999999999977 55.399999999999977 C45.649999999999977 59.225000000000023 34.149999999999977 66.875000000000000 28.399999999999977 70.699999999999989 C26.475000000000023 69.425000000000011 22.625000000000000 66.875000000000000 20.699999999999989 65.599999999999994 C20.699999999999989 70.474999999999994 20.699999999999989 80.224999999999994 20.699999999999989 85.099999999999994 C18.225000000000023 87.574999999999989 13.274999999999977 92.525000000000006 10.800000000000011 95.000000000000000 C8.100000000000023 92.300000000000011 2.699999999999989 86.900000000000006 0.000000000000000 84.199999999999989 C1.350000000000023 82.849999999999994 4.050000000000011 80.150000000000006 5.399999999999977 78.800000000000011 C5.399999999999977 63.150000000000006 5.399999999999977 31.850000000000023 5.399999999999977 16.199999999999989 C4.050000000000011 14.850000000000023 1.800000000000011 12.600000000000023 0.000000000000000 10.800000000000011 L10.800000000000011 0.000000000000000 L20.699999999999989 9.899999999999977 L20.699999999999989 47.199999999999989 L28.399999999999977 52.300000000000011 L36.000000000000000 47.199999999999989 L36.000000000000000 9.899999999999977 L45.899999999999977 0.000000000000000 L56.800000000000011 10.800000000000011 L51.399999999999977 16.199999999999989 z" />
<glyph unicode="i" horiz-adv-x="56" d="M10.800000000000001 75.900000000000006 L0.600000000000023 86.099999999999994 L11.399999999999977 96.900000000000006 L21.600000000000023 86.699999999999989 L10.800000000000011 75.900000000000006 zM26.100000000000001 10.800000000000001 L15.300000000000011 0.000000000000000 L5.399999999999977 9.899999999999977 L5.399999999999977 55.699999999999989 L0.000000000000000 61.100000000000023 L10.800000000000011 71.900000000000006 L20.699999999999989 62.000000000000000 L20.699999999999989 16.199999999999989 L26.100000000000023 10.800000000000011 z" />
<glyph unicode="j" horiz-adv-x="56" d="M35.299999999999997 76.000000000000000 L25.100000000000023 86.199999999999989 L35.899999999999977 97.000000000000000 L46.100000000000023 86.800000000000011 L35.300000000000011 76.000000000000000 zM35.399999999999999 72.000000000000000 L45.000000000000000 62.100000000000023 L45.000000000000000 -15.000000000000000 L22.500000000000000 -30.000000000000000 L0.000000000000000 -15.000000000000000 L0.000000000000000 -7.199999999999989 L15.000000000000000 7.800000000000011 L15.000000000000000 -6.899999999999977 L22.500000000000000 -11.899999999999977 L30.000000000000000 -6.899999999999977 L30.000000000000000 9.899999999999977 L29.899999999999977 10.000000000000000 L29.899999999999977 55.800000000000011 L24.500000000000000 61.199999999999989 L35.399999999999977 72.000000000000000 z" />
<glyph unicode="k" horiz-adv-x="56" d="M51.399999999999999 16.199999999999999 C51.399999999999977 22.175000000000011 51.399999999999977 34.125000000000000 51.399999999999977 40.100000000000023 C49.100000000000023 41.625000000000000 44.500000000000000 44.675000000000011 42.199999999999989 46.199999999999989 C44.500000000000000 47.725000000000023 49.100000000000023 50.774999999999977 51.399999999999977 52.300000000000011 C51.399999999999977 57.300000000000011 51.399999999999977 67.300000000000011 51.399999999999977 72.300000000000011 C48.925000000000011 74.775000000000006 43.975000000000023 79.724999999999994 41.500000000000000 82.199999999999989 C38.774999999999977 79.500000000000000 33.324999999999989 74.100000000000023 30.600000000000023 71.400000000000006 C31.949999999999989 70.050000000000011 34.649999999999977 67.349999999999994 36.000000000000000 66.000000000000000 C36.000000000000000 64.625000000000000 36.000000000000000 61.875000000000000 36.000000000000000 60.500000000000000 C34.100000000000023 59.225000000000023 30.933333333333337 57.100000000000023 28.399999999999977 55.399999999999977 L28.399999999999977 55.399999999999977 L20.699999999999989 50.300000000000011 L20.699999999999989 85.099999999999994 L10.800000000000011 95.000000000000000 L0.000000000000000 84.199999999999989 L5.399999999999977 78.800000000000011 L5.399999999999977 16.199999999999989 L0.000000000000000 10.800000000000011 L10.800000000000011 0.000000000000000 L20.699999999999989 9.899999999999977 L20.699999999999989 31.899999999999977 L28.399999999999977 37.000000000000000 L36.000000000000000 31.899999999999977 L36.000000000000000 9.899999999999977 L45.899999999999977 0.000000000000000 L56.800000000000011 10.800000000000011 L51.399999999999977 16.199999999999989 z" />
<glyph unicode="l" horiz-adv-x="56" d="M28.399999999999999 0.000000000000000 C22.649999999999977 3.824999999999989 11.149999999999977 11.475000000000023 5.399999999999977 15.300000000000011 C5.399999999999977 31.500000000000000 5.399999999999977 63.899999999999977 5.399999999999977 80.099999999999994 C4.050000000000011 81.449999999999989 1.350000000000023 84.150000000000006 0.000000000000000 85.500000000000000 C2.699999999999989 88.199999999999989 8.100000000000023 93.599999999999994 10.800000000000011 96.300000000000011 C13.274999999999977 93.824999999999989 18.225000000000023 88.875000000000000 20.699999999999989 86.400000000000006 C20.699999999999989 70.675000000000011 20.699999999999989 39.225000000000023 20.699999999999989 23.500000000000000 C22.625000000000000 22.225000000000023 26.475000000000023 19.675000000000011 28.399999999999977 18.399999999999977 C31.149999999999977 20.250000000000000 36.649999999999977 23.949999999999989 39.399999999999977 25.800000000000011 C41.524999999999977 22.625000000000000 45.066666666666663 17.333333333333314 47.899999999999977 13.100000000000023 L28.399999999999977 0.000000000000000 z" />
<glyph unicode="m" horiz-adv-x="56.899999999999999" d="M83.400000000000006 16.500000000000000 C83.399999999999977 26.475000000000023 83.399999999999977 46.425000000000011 83.399999999999977 56.399999999999977 C77.549999999999955 60.300000000000011 65.850000000000023 68.099999999999994 60.000000000000000 72.000000000000000 C56.100000000000023 69.400000000000006 48.300000000000011 64.199999999999989 44.399999999999977 61.600000000000023 C40.524999999999977 64.199999999999989 32.774999999999977 69.400000000000006 28.899999999999977 72.000000000000000 C26.225000000000023 70.199999999999989 20.875000000000000 66.599999999999994 18.199999999999989 64.800000000000011 C16.399999999999977 66.599999999999994 12.800000000000011 70.199999999999989 11.000000000000000 72.000000000000000 C8.250000000000000 69.250000000000000 2.750000000000000 63.750000000000000 0.000000000000000 61.000000000000000 C1.375000000000000 59.625000000000000 4.125000000000000 56.875000000000000 5.500000000000000 55.500000000000000 C5.500000000000000 45.750000000000000 5.500000000000000 29.500000000000000 5.500000000000000 16.500000000000000 L0.000000000000000 11.000000000000000 L11.000000000000000 0.000000000000000 L21.100000000000023 10.100000000000023 L21.100000000000023 48.100000000000023 L28.899999999999977 53.199999999999989 L36.600000000000023 48.100000000000023 L36.600000000000023 10.100000000000023 L46.699999999999989 0.000000000000000 L57.699999999999989 11.000000000000000 L52.199999999999989 16.500000000000000 L52.199999999999989 48.100000000000023 L60.000000000000000 53.199999999999989 L67.800000000000011 48.100000000000023 L67.800000000000011 10.100000000000023 L77.899999999999977 0.000000000000000 L88.899999999999977 11.000000000000000 L83.399999999999977 16.500000000000000 z" />
<glyph unicode="n" horiz-adv-x="56" d="M51.399999999999999 16.199999999999999 C51.399999999999977 26.000000000000000 51.399999999999977 45.600000000000023 51.399999999999977 55.399999999999977 C45.649999999999977 59.250000000000000 34.149999999999977 66.949999999999989 28.399999999999977 70.800000000000011 C25.774999999999977 69.050000000000011 20.524999999999977 65.550000000000011 17.899999999999977 63.800000000000011 C16.125000000000000 65.550000000000011 12.574999999999989 69.050000000000011 10.800000000000011 70.800000000000011 C8.100000000000023 68.099999999999994 2.699999999999989 62.699999999999989 0.000000000000000 60.000000000000000 C1.350000000000023 58.649999999999977 4.050000000000011 55.949999999999989 5.399999999999977 54.600000000000023 C5.399999999999977 45.000000000000000 5.399999999999977 25.800000000000011 5.399999999999977 16.199999999999989 C4.050000000000011 14.850000000000023 1.350000000000023 12.149999999999977 0.000000000000000 10.800000000000011 C2.699999999999989 8.100000000000023 7.199999999999989 3.600000000000023 10.800000000000011 0.000000000000000 L20.699999999999989 9.899999999999977 L20.699999999999989 47.300000000000011 L28.399999999999977 52.399999999999977 L36.000000000000000 47.300000000000011 L36.000000000000000 9.899999999999977 L45.899999999999977 0.000000000000000 L56.800000000000011 10.800000000000011 L51.399999999999977 16.199999999999989 z" />
<glyph unicode="o" horiz-adv-x="56" d="M23.000000000000000 0.000000000000000 L0.000000000000000 15.300000000000011 L0.000000000000000 56.699999999999989 L23.000000000000000 72.000000000000000 L46.000000000000000 56.699999999999989 L46.000000000000000 15.300000000000011 L23.000000000000000 0.000000000000000 zM15.300000000000001 23.500000000000000 L23.000000000000000 18.399999999999977 L30.699999999999989 23.500000000000000 L30.699999999999989 48.500000000000000 L23.000000000000000 53.600000000000023 L15.300000000000011 48.500000000000000 L15.300000000000011 23.500000000000000 z" />
<glyph unicode="p" horiz-adv-x="56" d="M51.399999999999999 56.700000000000003 L51.399999999999977 15.300000000000011 L28.399999999999977 0.000000000000000 L20.699999999999989 5.100000000000023 L20.699999999999989 -14.399999999999977 L10.800000000000011 -24.300000000000011 L0.000000000000000 -13.500000000000000 L5.399999999999977 -8.000000000000000 L5.399999999999977 54.500000000000000 L0.000000000000000 59.899999999999977 L10.800000000000011 70.800000000000011 L17.100000000000023 64.500000000000000 L28.399999999999977 72.000000000000000 L51.399999999999977 56.699999999999989 zM36.000000000000000 48.500000000000000 L28.300000000000011 53.600000000000023 L20.600000000000023 48.500000000000000 L20.600000000000023 23.500000000000000 L28.300000000000011 18.399999999999977 L36.000000000000000 23.500000000000000 L36.000000000000000 48.500000000000000 z" />
<glyph unicode="q" horiz-adv-x="56" d="M45.899999999999999 -8.000000000000000 L51.399999999999977 -13.500000000000000 L40.600000000000023 -24.300000000000011 L30.699999999999989 -14.399999999999977 L30.699999999999989 5.100000000000023 L23.000000000000000 0.000000000000000 L0.000000000000000 15.300000000000011 L0.000000000000000 56.699999999999989 L23.000000000000000 72.000000000000000 L34.199999999999989 64.500000000000000 L40.500000000000000 70.800000000000011 L51.300000000000011 59.899999999999977 L45.899999999999977 54.500000000000000 L45.899999999999977 -8.000000000000000 zM30.699999999999999 23.500000000000000 L30.699999999999989 48.500000000000000 L23.000000000000000 53.600000000000023 L15.300000000000011 48.500000000000000 L15.300000000000011 23.500000000000000 L23.000000000000000 18.399999999999977 L30.699999999999989 23.500000000000000 z" />
<glyph unicode="r" horiz-adv-x="56" d="M36.000000000000000 37.700000000000003 C39.850000000000023 40.250000000000000 47.550000000000011 45.350000000000023 51.399999999999977 47.899999999999977 C51.399999999999977 49.774999999999977 51.399999999999977 53.524999999999977 51.399999999999977 55.399999999999977 C45.649999999999977 59.250000000000000 34.149999999999977 66.949999999999989 28.399999999999977 70.800000000000011 C25.774999999999977 69.050000000000011 20.524999999999977 65.550000000000011 17.899999999999977 63.800000000000011 C16.125000000000000 65.550000000000011 12.574999999999989 69.050000000000011 10.800000000000011 70.800000000000011 C8.100000000000023 68.099999999999994 2.699999999999989 62.699999999999989 0.000000000000000 60.000000000000000 C1.350000000000023 58.649999999999977 4.050000000000011 55.949999999999989 5.399999999999977 54.600000000000023 C5.399999999999977 45.000000000000000 5.399999999999977 25.800000000000011 5.399999999999977 16.199999999999989 C4.050000000000011 14.850000000000023 1.800000000000011 12.600000000000023 0.000000000000000 10.800000000000011 L10.800000000000011 0.000000000000000 L20.699999999999989 9.899999999999977 L20.699999999999989 47.300000000000011 L28.399999999999977 52.399999999999977 L36.000000000000000 47.300000000000011 L36.000000000000000 37.699999999999989 z" />
<glyph unicode="s" horiz-adv-x="56" d="M15.300000000000001 48.500000000000000 C17.225000000000023 49.774999999999977 21.074999999999989 52.324999999999989 23.000000000000000 53.600000000000023 C24.899999999999977 52.324999999999989 28.699999999999989 49.774999999999977 30.600000000000023 48.500000000000000 C30.600000000000023 47.399999999999977 30.600000000000023 45.199999999999989 30.600000000000023 44.100000000000023 C34.425000000000011 46.649999999999977 42.074999999999989 51.750000000000000 45.899999999999977 54.300000000000011 C45.899999999999977 54.899999999999977 45.899999999999977 56.100000000000023 45.899999999999977 56.699999999999989 C40.175000000000011 60.524999999999977 28.725000000000023 68.175000000000011 23.000000000000000 72.000000000000000 C17.250000000000000 68.175000000000011 5.750000000000000 60.524999999999977 0.000000000000000 56.699999999999989 C0.000000000000000 52.250000000000000 0.000000000000000 43.350000000000023 0.000000000000000 38.899999999999977 C7.649999999999977 35.074999999999989 20.399999999999977 28.699999999999989 30.600000000000023 23.600000000000023 L30.600000000000023 23.500000000000000 L23.000000000000000 18.399999999999977 L15.300000000000011 23.500000000000000 L15.300000000000011 27.899999999999977 L0.000000000000000 17.699999999999989 L0.000000000000000 15.300000000000011 L23.000000000000000 0.000000000000000 L45.899999999999977 15.300000000000011 L45.899999999999977 33.100000000000023 L15.300000000000011 48.399999999999977 L15.300000000000011 48.500000000000000 z" />
<glyph unicode="t" horiz-adv-x="56" d="M32.899999999999999 56.600000000000001 C32.899999999999977 60.550000000000011 32.899999999999977 68.449999999999989 32.899999999999977 72.400000000000006 C30.699999999999989 72.400000000000006 26.300000000000011 72.400000000000006 24.100000000000023 72.400000000000006 C24.100000000000023 75.900000000000006 24.100000000000023 82.900000000000006 24.100000000000023 86.400000000000006 C21.625000000000000 88.875000000000000 16.675000000000011 93.824999999999989 14.199999999999989 96.300000000000011 C11.500000000000000 93.599999999999994 6.100000000000023 88.199999999999989 3.399999999999977 85.500000000000000 C4.750000000000000 84.150000000000006 7.449999999999989 81.449999999999989 8.800000000000011 80.099999999999994 C8.800000000000011 78.175000000000011 8.800000000000011 74.324999999999989 8.800000000000011 72.400000000000006 C6.600000000000023 72.400000000000006 2.199999999999989 72.400000000000006 0.000000000000000 72.400000000000006 C0.000000000000000 68.449999999999989 0.000000000000000 61.866666666666674 0.000000000000000 56.600000000000023 L8.800000000000011 56.600000000000023 L8.800000000000011 9.699999999999989 L23.300000000000011 0.000000000000000 L31.800000000000011 12.800000000000011 L24.100000000000023 17.899999999999977 L24.100000000000023 56.600000000000023 L32.899999999999977 56.600000000000023 z" />
<glyph unicode="u" horiz-adv-x="56" d="M52.200000000000003 16.500000000000000 C52.199999999999989 18.375000000000000 52.199999999999989 22.125000000000000 52.199999999999989 24.000000000000000 C52.199999999999989 24.000000000000000 52.199999999999989 24.000000000000000 52.199999999999989 24.000000000000000 C52.199999999999989 33.475000000000023 52.199999999999989 52.425000000000011 52.199999999999989 61.899999999999977 C49.699999999999989 64.425000000000011 44.699999999999989 69.474999999999994 42.199999999999989 72.000000000000000 C39.425000000000011 69.250000000000000 33.875000000000000 63.750000000000000 31.100000000000023 61.000000000000000 C32.475000000000023 59.625000000000000 35.225000000000023 56.875000000000000 36.600000000000023 55.500000000000000 C36.600000000000023 47.625000000000000 36.600000000000023 34.500000000000000 36.600000000000023 24.000000000000000 L28.899999999999977 18.800000000000011 L21.100000000000023 24.000000000000000 L21.100000000000023 61.899999999999977 L11.000000000000000 72.000000000000000 L0.000000000000000 61.000000000000000 L5.500000000000000 55.500000000000000 L5.500000000000000 15.600000000000023 L28.899999999999977 0.000000000000000 L39.500000000000000 7.199999999999989 L46.699999999999989 0.000000000000000 L57.699999999999989 11.000000000000000 L52.199999999999989 16.500000000000000 z" />
<glyph unicode="v" horiz-adv-x="56" d="M5.399999999999999 54.600000000000001 C5.399999999999977 44.800000000000011 5.399999999999977 25.199999999999989 5.399999999999977 15.399999999999977 C11.149999999999977 11.550000000000011 22.649999999999977 3.850000000000023 28.399999999999977 0.000000000000000 C34.149999999999977 3.850000000000023 45.649999999999977 11.550000000000011 51.399999999999977 15.399999999999977 C51.399999999999977 25.199999999999989 51.399999999999977 44.800000000000011 51.399999999999977 54.600000000000023 C52.750000000000000 55.949999999999989 55.449999999999989 58.649999999999977 56.800000000000011 60.000000000000000 C54.074999999999989 62.699999999999989 48.625000000000000 68.099999999999994 45.899999999999977 70.800000000000011 C43.425000000000011 68.324999999999989 38.475000000000023 63.375000000000000 36.000000000000000 60.899999999999977 C36.000000000000000 51.574999999999989 36.000000000000000 32.925000000000011 36.000000000000000 23.600000000000023 C34.100000000000023 22.300000000000011 30.933333333333337 20.133333333333326 28.399999999999977 18.399999999999977 L20.699999999999989 23.600000000000023 L20.699999999999989 60.899999999999977 L10.800000000000011 70.800000000000011 L0.000000000000000 60.000000000000000 L5.399999999999977 54.600000000000023 z" />
<glyph unicode="w" horiz-adv-x="54.899999999999999" d="M5.500000000000000 55.500000000000000 C5.500000000000000 45.524999999999977 5.500000000000000 25.574999999999989 5.500000000000000 15.600000000000023 C11.350000000000023 11.699999999999989 23.050000000000011 3.899999999999977 28.899999999999977 0.000000000000000 C32.800000000000011 2.600000000000023 40.600000000000023 7.800000000000011 44.500000000000000 10.399999999999977 C48.375000000000000 7.800000000000011 56.125000000000000 2.600000000000023 60.000000000000000 0.000000000000000 C65.850000000000023 4.125000000000000 77.549999999999955 12.375000000000000 83.399999999999977 16.500000000000000 C83.399999999999977 26.250000000000000 83.399999999999977 45.750000000000000 83.399999999999977 55.500000000000000 C84.774999999999977 56.875000000000000 87.066666666666606 59.166666666666686 88.899999999999977 61.000000000000000 L77.899999999999977 72.000000000000000 L67.800000000000011 61.899999999999977 L67.800000000000011 23.899999999999977 L60.000000000000000 18.699999999999989 L52.199999999999989 23.899999999999977 L52.199999999999989 61.899999999999977 L42.199999999999989 72.000000000000000 L31.199999999999989 61.000000000000000 L36.699999999999989 55.500000000000000 L36.699999999999989 23.899999999999977 L28.899999999999977 18.699999999999989 L21.100000000000023 23.899999999999977 L21.100000000000023 61.899999999999977 L11.000000000000000 72.000000000000000 L0.000000000000000 61.000000000000000 L5.500000000000000 55.500000000000000 z" />
<glyph unicode="x" horiz-adv-x="56" d="M51.399999999999999 29.899999999999999 C49.100000000000023 31.425000000000011 44.500000000000000 34.475000000000023 42.199999999999989 36.000000000000000 C44.500000000000000 37.524999999999977 49.100000000000023 40.574999999999989 51.399999999999977 42.100000000000023 C51.399999999999977 45.225000000000023 51.399999999999977 51.475000000000023 51.399999999999977 54.600000000000023 C52.750000000000000 55.949999999999989 55.449999999999989 58.649999999999977 56.800000000000011 60.000000000000000 C54.074999999999989 62.699999999999989 48.625000000000000 68.099999999999994 45.899999999999977 70.800000000000011 C43.425000000000011 68.324999999999989 38.475000000000023 63.375000000000000 36.000000000000000 60.899999999999977 C36.000000000000000 58.250000000000000 36.000000000000000 52.949999999999989 36.000000000000000 50.300000000000011 C34.100000000000023 49.024999999999977 30.300000000000011 46.475000000000023 28.399999999999977 45.199999999999989 C26.475000000000023 46.475000000000023 23.266666666666652 48.600000000000023 20.699999999999989 50.300000000000011 L20.699999999999989 60.899999999999977 L10.800000000000011 70.800000000000011 L0.000000000000000 60.000000000000000 L5.399999999999977 54.600000000000023 L5.399999999999977 42.100000000000023 L14.600000000000023 36.000000000000000 L5.399999999999977 29.899999999999977 L5.399999999999977 16.199999999999989 L0.000000000000000 10.800000000000011 L10.800000000000011 0.000000000000000 L20.699999999999989 9.899999999999977 L20.699999999999989 21.699999999999989 L28.399999999999977 26.800000000000011 L36.000000000000000 21.699999999999989 L36.000000000000000 9.899999999999977 L45.899999999999977 0.000000000000000 L56.800000000000011 10.800000000000011 L51.399999999999977 16.199999999999989 L51.399999999999977 29.899999999999977 z" />
<glyph unicode="y" horiz-adv-x="56" d="M45.899999999999999 70.900000000000006 C43.425000000000011 68.425000000000011 38.475000000000023 63.474999999999994 36.000000000000000 61.000000000000000 C36.000000000000000 51.649999999999977 36.000000000000000 32.949999999999989 36.000000000000000 23.600000000000023 C34.100000000000023 22.324999999999989 30.300000000000011 19.774999999999977 28.399999999999977 18.500000000000000 C26.475000000000023 19.774999999999977 22.625000000000000 22.324999999999989 20.699999999999989 23.600000000000023 C20.699999999999989 32.949999999999989 20.699999999999989 51.649999999999977 20.699999999999989 61.000000000000000 C18.225000000000023 63.474999999999994 13.274999999999977 68.425000000000011 10.800000000000011 70.900000000000006 C8.100000000000023 68.199999999999989 2.699999999999989 62.800000000000011 0.000000000000000 60.100000000000023 C1.350000000000023 58.750000000000000 4.050000000000011 56.050000000000011 5.399999999999977 54.699999999999989 C5.399999999999977 44.899999999999977 5.399999999999977 28.566666666666663 5.399999999999977 15.500000000000000 L28.399999999999977 0.100000000000023 L36.000000000000000 5.199999999999989 L36.000000000000000 -7.000000000000000 L28.399999999999977 -12.100000000000023 L19.199999999999989 -6.000000000000000 L23.000000000000000 -3.399999999999977 L9.199999999999989 5.800000000000011 L5.399999999999977 3.199999999999989 L5.399999999999977 3.199999999999989 L5.399999999999977 -15.199999999999989 L28.399999999999977 -30.500000000000000 L51.399999999999977 -15.199999999999989 L51.399999999999977 54.699999999999989 L56.800000000000011 60.100000000000023 L45.899999999999977 70.900000000000006 z" />
<glyph unicode="z" horiz-adv-x="56" d="M45.899999999999999 56.799999999999997 C40.175000000000011 60.625000000000000 28.725000000000023 68.274999999999977 23.000000000000000 72.099999999999994 C17.250000000000000 68.274999999999977 5.750000000000000 60.625000000000000 0.000000000000000 56.800000000000011 C0.000000000000000 56.199999999999989 0.000000000000000 55.000000000000000 0.000000000000000 54.399999999999977 C3.824999999999989 51.850000000000023 11.475000000000023 46.750000000000000 15.300000000000011 44.199999999999989 C15.300000000000011 45.300000000000011 15.300000000000011 47.500000000000000 15.300000000000011 48.600000000000023 C17.225000000000023 49.875000000000000 21.074999999999989 52.425000000000011 23.000000000000000 53.699999999999989 C24.899999999999977 52.425000000000011 28.699999999999989 49.875000000000000 30.600000000000023 48.600000000000023 C30.600000000000023 46.500000000000000 30.600000000000023 42.300000000000011 30.600000000000023 40.199999999999989 C26.774999999999977 37.649999999999977 20.399999999999977 33.399999999999977 15.300000000000011 30.000000000000000 L15.300000000000011 21.800000000000011 L30.600000000000023 11.600000000000023 L30.600000000000023 -7.000000000000000 L23.000000000000000 -12.100000000000023 L15.300000000000011 -7.000000000000000 L15.300000000000011 -25.399999999999977 L23.000000000000000 -30.500000000000000 L45.899999999999977 -15.199999999999989 L45.899999999999977 19.800000000000011 L36.800000000000011 25.899999999999977 L45.899999999999977 32.000000000000000 L45.899999999999977 56.800000000000011 z" />
<glyph unicode="" horiz-adv-x="56" d="M36.000000000000000 75.000000000000000 L40.800000000000011 70.199999999999989 L30.600000000000023 60.000000000000000 L20.399999999999977 70.199999999999989 L40.800000000000011 90.599999999999994 L36.000000000000000 75.000000000000000 zM15.600000000000000 75.000000000000000 L20.399999999999977 70.199999999999989 L10.199999999999989 60.000000000000000 L0.000000000000000 70.199999999999989 L20.399999999999977 90.599999999999994 L15.600000000000023 75.000000000000000 z" />
<glyph unicode="" horiz-adv-x="56" d="M4.800000000000001 75.599999999999994 L0.000000000000000 80.400000000000006 L10.199999999999989 90.599999999999994 L20.399999999999977 80.400000000000006 L0.000000000000000 60.000000000000000 L4.800000000000011 75.599999999999994 zM25.199999999999999 75.599999999999994 L20.399999999999977 80.400000000000006 L30.600000000000023 90.599999999999994 L40.800000000000011 80.400000000000006 L20.399999999999977 60.000000000000000 L25.199999999999989 75.599999999999994 z" />
</font>
</defs>
</svg>
